Coordinates
version=1
nRows=13
nColumns=40
inDegrees=yes

Units are S.I. units (second, meters, Newtons, ...)
Angles are in degrees.

endheader
time	pelvis_tilt	pelvis_list	pelvis_rotation	pelvis_tx	pelvis_ty	pelvis_tz	hip_flexion_r	hip_adduction_r	hip_rotation_r	knee_angle_r	knee_angle_r_beta	ankle_angle_r	subtalar_angle_r	mtp_angle_r	hip_flexion_l	hip_adduction_l	hip_rotation_l	knee_angle_l	knee_angle_l_beta	ankle_angle_l	subtalar_angle_l	mtp_angle_l	lumbar_extension	lumbar_bending	lumbar_rotation	arm_flex_r	arm_add_r	arm_rot_r	elbow_flex_r	pro_sup_r	wrist_flex_r	wrist_dev_r	arm_flex_l	arm_add_l	arm_rot_l	elbow_flex_l	pro_sup_l	wrist_flex_l	wrist_dev_l
      0.00000000	      9.34832718	     23.23556607	     66.01972515	      0.56951231	      0.98550024	     -1.02201837	    -29.78937680	     -3.02212434	     15.52577260	     29.95470445	      0.52280822	     20.65443367	      0.00000000	      0.00000000	     -2.30794973	     -9.41905498	    -22.47154083	     14.60983940	      0.25498980	      3.51330851	      0.00000000	      0.00000000	    -42.40799084	     -4.48859222	     19.60500972	     13.31657288	    -19.86254656	      5.98863293	    141.18623715	     87.53156095	      0.00000000	      0.00000000	      3.05391480	     -1.12796911	      2.85926992	    135.47816346	     85.19817639	      0.00000000	      0.00000000
      0.01000000	      3.56986870	     21.20811110	     76.25260572	      0.55595545	      0.97842535	     -1.04530083	    -29.84754322	     -5.11635552	      2.72304404	     28.18769322	      0.49196806	     18.57573562	      0.00000000	      0.00000000	      3.62975352	     -3.83995434	    -13.72992457	     17.84775744	      0.31150213	      5.94264966	      0.00000000	      0.00000000	    -36.57079817	     -2.98120738	     11.23814101	      8.00941832	    -16.96469452	      5.39675353	    140.72753598	     87.58014161	      0.00000000	      0.00000000	      0.80046555	     -2.65866470	      3.04556977	    134.78809957	     84.70031358	      0.00000000	      0.00000000
      0.02000000	      2.94735185	     22.12649259	     75.80494340	      0.55434953	      0.97929029	     -1.04823213	    -29.83744220	     -6.44512209	      3.27695306	     31.03843966	      0.54172297	     16.66612879	      0.00000000	      0.00000000	      2.73608116	     -2.82317738	    -13.71576736	     19.78827332	      0.34537052	      6.52377556	      0.00000000	      0.00000000	    -36.95076028	     -3.89834952	     10.96714719	      7.24938153	    -16.07614496	      5.18916418	    140.69377737	     87.56402616	      0.00000000	      0.00000000	      0.64167693	     -2.75147715	      2.69452430	    134.93385177	     84.67752207	      0.00000000	      0.00000000
      0.03000000	      2.12778316	     23.21235577	     75.31862718	      0.55316046	      0.98073588	     -1.05151283	    -29.82534531	     -8.02856553	      3.69232046	     33.85184480	      0.59082615	     14.96701787	      0.00000000	      0.00000000	      1.19960096	     -1.47786352	    -14.08076278	     20.61054435	      0.35972186	      6.74928857	      0.00000000	      0.00000000	    -37.40882503	     -5.08524621	     10.71013807	      6.43950736	    -15.26828272	      4.93956205	    140.72566289	     87.55853184	      0.00000000	      0.00000000	      0.45763170	     -2.95284769	      2.42499200	    135.14462528	     84.71305303	      0.00000000	      0.00000000
      0.04000000	      1.04007905	     24.41915827	     75.06618861	      0.55178492	      0.98248190	     -1.05515875	    -29.80659110	     -9.84841922	      3.83848207	     36.77378356	      0.64182360	     12.55945442	      0.00000000	      0.00000000	     -0.76586826	      0.27172364	    -14.50311251	     20.73205424	      0.36184261	      7.11143829	      0.00000000	      0.00000000	    -37.90468409	     -6.44556925	     10.12500268	      5.69180387	    -14.34434159	      4.63711094	    140.76110629	     87.60757608	      0.00000000	      0.00000000	      0.26463542	     -3.26794322	      2.11841793	    135.44089079	     84.74635819	      0.00000000	      0.00000000
      0.05000000	     -0.02205948	     25.62245064	     75.01850004	      0.55019273	      0.98454552	     -1.05888238	    -29.77851792	    -11.55889057	      3.81967588	     39.57072540	      0.69063945	      9.58524514	      0.00000000	      0.00000000	     -3.02371924	      2.08738147	    -14.81817563	     20.22278716	      0.35295422	      7.77190261	      0.00000000	      0.00000000	    -38.41683751	     -7.64435129	      9.35428737	      4.98923023	    -13.42727538	      4.41873871	    140.73670078	     87.65492539	      0.00000000	      0.00000000	      0.06948660	     -3.68524520	      1.83560626	    135.77759002	     84.76351771	      0.00000000	      0.00000000
      0.06000000	     -1.10271198	     26.92022085	     74.97181922	      0.54893927	      0.98692377	     -1.06252070	    -29.73232615	    -13.32060656	      3.71894677	     42.39592784	      0.73994853	      6.54091792	      0.00000000	      0.00000000	     -5.65670183	      4.02991682	    -14.99713735	     19.10017396	      0.33336092	      7.89668015	      0.00000000	      0.00000000	    -39.04622070	     -8.90371290	      8.61883504	      4.22334450	    -12.56709023	      4.16637101	    140.81010414	     87.68307295	      0.00000000	      0.00000000	     -0.06972869	     -4.25076066	      1.63663980	    136.19765585	     84.78237524	      0.00000000	      0.00000000
      0.07000000	     -1.71517110	     28.07433100	     75.14886305	      0.54744193	      0.98940791	     -1.06570544	    -29.65032459	    -14.28772321	      3.76103038	     45.01934070	      0.78573572	      2.68039372	      0.00000000	      0.00000000	     -8.20763594	      5.44059609	    -14.77206356	     18.08487053	      0.31564054	      8.68210998	      0.00000000	      0.00000000	    -39.72810786	     -9.53996406	      7.76585261	      3.64450334	    -11.78136714	      3.98310200	    140.88169483	     87.71642591	      0.00000000	      0.00000000	     -0.13433369	     -4.82714058	      1.47931059	    136.67805147	     84.77112236	      0.00000000	      0.00000000
      0.08000000	     -2.50386298	     29.29401753	     75.26284998	      0.54604162	      0.99200206	     -1.06887634	    -29.48502555	    -15.57868073	      3.70980067	     47.63501991	      0.83138794	     -0.72756570	      0.00000000	      0.00000000	    -10.98953303	      7.08227212	    -14.81075949	     16.64158945	      0.29045053	      8.89907415	      0.00000000	      0.00000000	    -40.40439941	    -10.37152500	      6.92494316	      3.11098438	    -11.04224192	      3.83269443	    140.91451906	     87.73048669	      0.00000000	      0.00000000	     -0.15150982	     -5.51017821	      1.41743167	    137.07705918	     84.70242400	      0.00000000	      0.00000000
      0.09000000	     -2.96188361	     30.37547315	     75.32142572	      0.54476507	      0.99484334	     -1.07084452	    -29.00634322	    -16.37610472	      3.93873866	     50.28299689	      0.87760385	     -3.99012693	      0.00000000	      0.00000000	    -13.57193938	      8.31332378	    -14.39204032	     15.41365572	      0.26901904	      8.77654665	      0.00000000	      0.00000000	    -41.19158320	    -10.89582609	      6.17212354	      2.82967083	    -10.42396844	      3.65529543	    141.00310697	     87.75147701	      0.00000000	      0.00000000	     -0.03231094	     -6.19997172	      1.38332353	    137.51269657	     84.58433340	      0.00000000	      0.00000000
      0.10000000	     -3.30272042	     30.77093697	     75.26701936	      0.54348590	      0.99683410	     -1.07161039	    -27.32579531	    -16.85190077	      4.56374021	     53.23483713	      0.92912318	     -7.12129544	      0.00000000	      0.00000000	    -15.20440261	      9.19530259	    -14.16526999	     14.55533907	      0.25403859	      9.03316896	      0.00000000	      0.00000000	    -41.45354566	    -11.23237676	      5.63097770	      2.64605077	     -9.96037749	      3.65940291	    141.02432044	     87.76278818	      0.00000000	      0.00000000	      0.25602686	     -6.85318837	      1.43297759	    137.82375867	     84.43324991	      0.00000000	      0.00000000
      0.11000000	     -3.74759298	     30.46254806	     75.15314967	      0.54202587	      0.99776694	     -1.07164297	    -24.50480329	    -17.24411771	      5.42867260	     56.31328424	      0.98285222	     -9.44857105	      0.00000000	      0.00000000	    -15.87757258	      9.98340438	    -14.40340938	     13.90684667	      0.24272026	      9.52771476	      0.00000000	      0.00000000	    -41.08219579	    -11.54581730	      5.21770451	      2.51832042	     -9.63431003	      3.80190738	    140.96788789	     87.83088467	      0.00000000	      0.00000000	      0.62371721	     -7.54593537	      1.54117709	    138.02495154	     84.40165609	      0.00000000	      0.00000000
      0.12000000	     -3.93484807	     29.98401611	     74.89057439	      0.54097206	      0.99885652	     -1.07092962	    -21.53526220	    -17.10324737	      6.59984789	     59.08600975	      1.03124541	     -9.82953097	      0.00000000	      0.00000000	    -16.37450051	     10.47857489	    -14.63397579	     13.28229746	      0.23181982	      9.80616622	      0.00000000	      0.00000000	    -40.65281349	    -11.68607244	      4.94987646	      2.62702310	     -9.34759662	      3.92624184	    140.82392479	     87.87500408	      0.00000000	      0.00000000	      1.04173723	     -8.26401198	      1.65770335	    138.16329545	     84.37993523	      0.00000000	      0.00000000
